<?xml version="1.0" encoding="UTF-8" standalone="no"?>
<svg xmlns:rdf="http://www.w3.org/1999/02/22-rdf-syntax-ns#" xmlns="http://www.w3.org/2000/svg" xml:space="preserve" height="234.87" viewBox="0 0 278.05338 234.87283" width="278.05" version="1.1" xmlns:cc="http://creativecommons.org/ns#" xmlns:dc="http://purl.org/dc/elements/1.1/"><defs><clipPath id="d" clipPathUnits="userSpaceOnUse"><path d="m0.06 276.6h327.38v-276.54h-327.38v276.54z"/></clipPath><clipPath id="c" clipPathUnits="userSpaceOnUse"><path d="m0.06 276.6h327.38v-276.54h-327.38v276.54z"/></clipPath><clipPath id="b" clipPathUnits="userSpaceOnUse"><path d="m0.06 276.6h327.38v-276.54h-327.38v276.54z"/></clipPath><clipPath id="a" clipPathUnits="userSpaceOnUse"><path d="m0.06 276.6h327.38v-276.54h-327.38v276.54z"/></clipPath></defs><g transform="matrix(1.25 0 0 -1.25 -65.646 290.7)"><g transform="matrix(.67947 0 0 .67947 52.476 44.621)"><g fill="#b39d6e"><g><path d="m66.134 95.651v0.538c-0.347 0.077-0.578 0.345-0.578 0.577 0 0.345 2.731 9.188 3.307 12.688h0.077c0.422-3.808 3.267-11.727 3.267-12.65 0-0.385-0.114-0.538-0.538-0.615v-0.538h4.923v0.538c-0.231 0.077-0.385 0.345-0.385 0.577 0 0.576 0.231 1.499 0.5 2.345l4.461 14.957c0.231 0.808 0.576 1.154 0.96 1.269v0.538h-4.999v-0.538c0.5-0.115 0.77-0.269 0.77-0.691 0-0.539-2.769-8.731-3.576-13.305h-0.076c-0.347 2.691-3.577 12.381-3.577 13.188 0 0.539 0.308 0.656 0.768 0.808v0.538h-4.996v-0.538c0.537-0.077 0.769-0.191 0.769-0.577 0-0.73-2.732-9.267-3.385-12.88h-0.077c-0.577 2.96-3.614 12.072-3.614 12.919 0 0.347 0.154 0.461 0.616 0.538v0.538h-5.077v-0.538c0.385-0.077 0.577-0.308 0.809-1.115l4.652-15.34c0.46-1.577 0.654-2.154 0.654-2.268 0-0.193-0.232-0.423-0.424-0.423v-0.538h4.769"/><path d="m94.413 95.651v0.538c-1.115 0.116-1.307 0.345-1.307 1v17.147c0 0.653 0.192 0.886 1.307 1.001v0.538h-6.46v-0.538c1.116-0.115 1.308-0.348 1.308-1.001v-17.147c0-0.655-0.192-0.884-1.308-1v-0.538h6.46"/><path d="m102.16 97.189c0-0.655-0.192-0.884-1.076-1v-0.538h13.38c0.884 0 1.193-0.117 1.308-0.693h0.539v4.845h-0.539c-0.115-0.806-0.424-0.923-1.308-0.923h-8.46v15.456c0 0.653 0.193 0.886 1.309 1.001v0.538h-6.306v-0.538c0.961-0.115 1.153-0.348 1.153-1.001v-17.147"/><path d="m122.3 97.189c0-0.655-0.192-0.884-1.077-1v-0.538h13.379c0.886 0 1.194-0.117 1.308-0.693h0.539v4.845h-0.539c-0.114-0.806-0.422-0.923-1.308-0.923h-8.458v15.456c0 0.653 0.191 0.886 1.307 1.001v0.538h-6.306v-0.538c0.963-0.115 1.155-0.348 1.155-1.001v-17.147"/></g><path d="m145.39 95.651v0.538c-0.654 0.039-0.846 0.384-0.846 0.728 0 0.156 0.04 0.425 0.154 0.694l1.077 3.191h6.921l1.23-3.536c0.115-0.269 0.154-0.462 0.154-0.654 0-0.269-0.192-0.346-0.693-0.423v-0.538h5.23v0.538c-0.423 0.077-0.576 0.23-0.807 0.922l-5.499 15.996c-0.346 1.039-0.461 1.345-0.461 1.576 0 0.385 0.231 0.614 0.808 0.654v0.538h-6.422v-0.538c0.692-0.077 0.846-0.232 0.846-0.461 0-0.308-0.114-0.617-0.346-1.308l-5.613-16.457c-0.115-0.307-0.308-0.883-0.808-0.922v-0.538h5.075zm1.309 7.844 2.498 8.075h0.077l2.538-8.075h-5.113" fill-rule="evenodd"/><g><path d="m169.38 95.651v0.538c-0.693 0.039-0.924 0.269-0.924 0.769v14.072h0.078c1.575-5.267 3.998-10.343 5.92-15.379h0.578c1.999 5.151 4.461 10.264 6.19 15.534h0.078v-14.227c0-0.5-0.232-0.73-0.924-0.769v-0.538h5.382v0.538c-0.653 0.039-0.922 0.269-0.922 0.769v17.61c0 0.5 0.269 0.729 0.847 0.769v0.538h-6.729v-0.538c0.421-0.115 0.615-0.269 0.615-0.616 0-0.537-2.654-6.382-4.654-11.38-0.729 2.076-4.537 10.766-4.537 11.419 0 0.269 0.194 0.425 0.577 0.577v0.538h-6.805v-0.538c0.539-0.04 0.77-0.269 0.77-0.769v-17.61c0-0.5-0.27-0.73-0.77-0.769v-0.538h5.23"/><path d="m197.7 104.42h4.923c0.883 0 1.192-0.116 1.307-0.615h0.537v4.537h-0.537c-0.115-0.576-0.424-0.691-1.307-0.691h-4.923v4.997h8.306c0.885 0 1.192-0.115 1.308-0.615h0.538v4.538h-0.538c-0.116-0.577-0.423-0.693-1.308-0.693h-13.458v-0.538c1.114-0.115 1.308-0.348 1.308-1.001v-17.147c0-0.655-0.194-0.884-1.231-1v-0.538h13.918c0.886 0 1.193-0.117 1.309-0.693h0.538v4.614h-0.538c-0.116-0.575-0.423-0.692-1.309-0.692h-8.843v5.537"/><path d="m225.62 95.651v0.538c-0.732 0.116-0.923 0.345-0.923 1v15.456h4.615c0.883 0 1.191-0.115 1.306-0.884h0.538v4.807h-0.538c-0.115-0.577-0.423-0.693-1.306-0.693h-13.074c-0.885 0-1.193 0.116-1.308 0.693h-0.538v-4.807h0.538c0.115 0.769 0.423 0.884 1.308 0.884h4.615v-15.456c0-0.655-0.194-0.884-0.77-1v-0.538h5.537"/><path d="m247.91 95.651v0.538c-0.73 0.116-0.923 0.345-0.923 1v15.456h4.615c0.884 0 1.191-0.115 1.306-0.884h0.538v4.807h-0.538c-0.115-0.577-0.422-0.693-1.306-0.693h-13.074c-0.885 0-1.191 0.116-1.307 0.693h-0.539v-4.807h0.539c0.116 0.769 0.422 0.884 1.307 0.884h4.615v-15.456c0-0.655-0.194-0.884-0.77-1v-0.538h5.537"/><path d="m264.59 104.42h4.923c0.885 0 1.19-0.116 1.307-0.615h0.538v4.537h-0.538c-0.117-0.576-0.422-0.691-1.307-0.691h-4.923v4.997h8.305c0.885 0 1.193-0.115 1.308-0.615h0.538v4.538h-0.538c-0.115-0.577-0.423-0.693-1.308-0.693h-13.457v-0.538c1.117-0.115 1.308-0.348 1.308-1.001v-17.147c0-0.655-0.191-0.884-1.23-1v-0.538h13.92c0.884 0 1.191-0.117 1.305-0.693h0.54v4.614h-0.54c-0.114-0.575-0.421-0.692-1.305-0.692h-8.846v5.537"/><path d="m19.786 70.35v18.236s1.986 0.067 3.258 0.067c3.013 0 5.014-3.189 4.554-8.891-0.351-4.346-1.814-8.669-4.889-9.215-0.527-0.095-2.387-0.265-2.923-0.197zm-17.958-45.332s5.355 1.435 10.21 2.462c4.856 1.026 11.604 2.291 13.747 2.656 6.15 1.047 18.996 5.23 18.963 23.64-0.009 5.443-3.696 13.927-9.576 15.076 5.058 1.013 8.49 5.739 8.49 14.361 0 12.021-7.132 15.66-17.538 15.66h-24.296v-8.799c1.555-0.811 2.352-1.454 2.352-4.562v-44.861c0-2.442-0.797-3.795-2.352-4.606v-11.027zm17.958 17.056v18.812c0.335 0 1.921 0.027 2.255 0 5.754-0.46 5.831-3.8 5.831-7.528 0-5.202 0.294-9.711-5.161-10.825-0.525-0.106-2.389-0.526-2.925-0.459"/></g></g><g clip-path="url(#d)"><path stroke-linejoin="round" d="m19.786 70.35v18.236s1.986 0.067 3.258 0.067c3.013 0 5.014-3.189 4.554-8.891-0.351-4.346-1.814-8.669-4.889-9.215-0.527-0.095-2.387-0.265-2.923-0.197zm-17.958-45.332s5.355 1.435 10.21 2.462c4.856 1.026 11.604 2.291 13.747 2.656 6.15 1.047 18.996 5.23 18.963 23.64-0.009 5.443-3.696 13.927-9.576 15.076 5.058 1.013 8.49 5.739 8.49 14.361 0 12.021-7.132 15.66-17.538 15.66h-24.296v-8.799c1.555-0.811 2.352-1.454 2.352-4.562v-44.861c0-2.442-0.797-3.795-2.352-4.606v-11.027zm17.958 17.056v18.812c0.335 0 1.921 0.027 2.255 0 5.754-0.46 5.831-3.8 5.831-7.528 0-5.202 0.294-9.711-5.161-10.825-0.525-0.106-2.389-0.526-2.925-0.459z" stroke="#bca96f" stroke-linecap="round" stroke-width="3.656" fill="none"/></g><path d="m45.865 41.857c1.555 0.812 1.892 2.165 1.892 4.586v30.368c0 2.443-0.337 3.794-1.892 4.605v8.78h37.003v-19.539h-13.897v4.321c0 3.529-0.868 4.615-4.34 4.615h-1.335v-10.01l17.771-6.16-17.771-7.477v-11.404c0.467-0.067 1.197-0.067 1.599-0.067 3.338 0 4.144 3.457 4.144 7.559 0 0.538 0 2.985-0.068 3.659l13.897 1.051v-20.141l-37.003-3.686v8.94" fill="#b39d6e"/><path stroke-linejoin="round" d="m45.865 41.857c1.555 0.812 1.892 2.165 1.892 4.586v30.368c0 2.443-0.337 3.794-1.892 4.605v8.78h37.003v-19.539h-13.897v4.321c0 3.529-0.868 4.615-4.34 4.615h-1.335v-10.01l17.771-6.16-17.771-7.477v-11.404c0.467-0.067 1.197-0.067 1.599-0.067 3.338 0 4.144 3.457 4.144 7.559 0 0.538 0 2.985-0.068 3.659l13.897 1.051v-20.141l-37.003-3.686v8.94z" stroke="#bca96f" stroke-linecap="round" stroke-width="3.656" fill="none"/><path d="m82.359 36.603 17.357 1.316v8.924c-1.486 0.202-2.229 0.945-2.229 2.5 0 0.474 0.662 5.684 0.729 6.293l3.201-8.559 3.378 8.823c0.134-0.677 0.796-5.821 0.796-6.091 0-1.352-0.675-2.365-1.689-2.703v-8.924l19.587 0.526v8.924c-1.014 0.338-1.892 1.757-2.364 4.056l-7.7 38.235h-22.151l-6.821-40.342c-0.42-2.365-1.298-3.784-2.109-4.055v-8.923zm16.479 24.814 2.363 18.055 2.837-17.792-5.2-0.263" fill="#b39d6e"/><path stroke-linejoin="round" d="m82.359 36.603 17.357 1.316v8.924c-1.486 0.202-2.229 0.945-2.229 2.5 0 0.474 0.662 5.684 0.729 6.293l3.201-8.559 3.378 8.823c0.134-0.677 0.796-5.821 0.796-6.091 0-1.352-0.675-2.365-1.689-2.703v-8.924l19.587 0.526v8.924c-1.014 0.338-1.892 1.757-2.364 4.056l-7.7 38.235h-22.151l-6.821-40.342c-0.42-2.365-1.298-3.784-2.109-4.055v-8.923zm16.479 24.814 2.363 18.055 2.837-17.792-5.2-0.263z" stroke="#bca96f" stroke-linecap="round" stroke-width="3.656" fill="none"/><g clip-path="url(#c)"><path d="m255.07 10.232c-18.383-1.716-42.707 0.36-61.555 9.396-2.815 1.35-7.455 4.298-10.147 5.923 6.313 0.523 13.768 0.474 18.396 0.75 23.084 1.378 53.154-0.728 64.771-4.158 10.563-3.116 13.345-9.597-11.465-11.911zm-113.03 56.929h-1.562v12.179h0.815c4.21 0 5.5-1.871 5.5-5.856 0-4.054-1.154-6.323-4.753-6.323zm58.675-32.366c-10.018-0.372-19.247-1.032-27.19-1.787-4.03 3.835-7.45 8.498-10.954 14.378-5.818 9.762-6.509 13.338-6.509 13.338 5.109 1.556 6.617 10.123 6.617 13.598 0 10.465-5.543 15.347-17.584 15.347h-21.98v-8.776c1.555-0.81 1.825-2.16 1.825-4.594v-24.1c0-2.427-0.27-3.775-1.825-4.585v-8.906l19.265 0.264v8.905c-1.767 0.675-1.902 2.023-1.902 4.585v7.385h0.88s5.217-11.072 8.893-17.19c1.236-2.055 3.677-5.96 8.09-10.95-11.901-1.665-19.467-3.252-29.759-6.065-41.526-11.352-70.7-11.468-77.393 2.232 0 0-3.359-4.638 2.254-8.692 0 0-8.921 3.356-10.679 15.3 0 0-7.909-9.375 1.149-16.644 0 0-5.049 3.047-7.399 6.181 0 0-0.871-4.004 6.468-9.168 0 0-6.381 0.811-10.638 10.473-6.298-16.704 40.182-31.059 90.89-11.384 11.01 3.277 29.722 8.268 44.848 9.377 8.172-6.334 25.421-17.625 45.433-20.139 35.097-4.409 71.214 2.559 72.463 12.48 0.749 5.939-12.539 21.843-85.275 19.137" fill="#b39d6e"/><path stroke-linejoin="round" d="m255.07 10.232c-18.383-1.716-42.707 0.36-61.555 9.396-2.815 1.35-7.455 4.298-10.147 5.923 6.313 0.523 13.768 0.474 18.396 0.75 23.084 1.378 53.154-0.728 64.771-4.158 10.563-3.116 13.345-9.597-11.465-11.911zm-113.03 56.929h-1.562v12.179h0.815c4.21 0 5.5-1.871 5.5-5.856 0-4.054-1.154-6.323-4.753-6.323zm58.675-32.366c-10.018-0.372-19.247-1.032-27.19-1.787-4.03 3.835-7.45 8.498-10.954 14.378-5.818 9.762-6.509 13.338-6.509 13.338 5.109 1.556 6.617 10.123 6.617 13.598 0 10.465-5.543 15.347-17.584 15.347h-21.98v-8.776c1.555-0.81 1.825-2.16 1.825-4.594v-24.1c0-2.427-0.27-3.775-1.825-4.585v-8.906l19.265 0.264v8.905c-1.767 0.675-1.902 2.023-1.902 4.585v7.385h0.88s5.217-11.072 8.893-17.19c1.236-2.055 3.677-5.96 8.09-10.95-11.901-1.665-19.467-3.252-29.759-6.065-41.526-11.352-70.7-11.468-77.393 2.232 0 0-3.359-4.638 2.254-8.692 0 0-8.921 3.356-10.679 15.3 0 0-7.909-9.375 1.149-16.644 0 0-5.049 3.047-7.399 6.181 0 0-0.871-4.004 6.468-9.168 0 0-6.381 0.811-10.638 10.473-6.298-16.704 40.182-31.059 90.89-11.384 11.01 3.277 29.722 8.268 44.848 9.377 8.172-6.334 25.421-17.625 45.433-20.139 35.097-4.409 71.214 2.559 72.463 12.48 0.749 5.939-12.539 21.843-85.275 19.137z" stroke="#bca96f" stroke-linecap="round" stroke-width="3.656" fill="none"/></g><path d="m201.19 69.367h-15.074v5.692c0 3.308-0.676 4.928-2.977 4.928-2.368 0-2.976-1.62-2.976-4.928v-20.862c0-3.307 0.608-4.927 2.976-4.927s2.977 1.62 2.977 4.927v5.49h15.074v-15.946c-4.597-3.639-10.749-5.256-18.794-5.256-13.605 0-18.463 5.122-18.463 17.874v16.338c0 12.495 5.647 17.969 18.778 17.969 8.411 0 13.477-0.906 18.479-4.489v-16.81" fill="#b39d6e"/><path stroke-linejoin="round" d="m201.19 69.367h-15.074v5.692c0 3.308-0.676 4.928-2.977 4.928-2.368 0-2.976-1.62-2.976-4.928v-20.862c0-3.307 0.608-4.927 2.976-4.927s2.977 1.62 2.977 4.927v5.49h15.074v-15.946c-4.597-3.639-10.749-5.256-18.794-5.256-13.605 0-18.463 5.122-18.463 17.874v16.338c0 12.495 5.647 17.969 18.778 17.969 8.411 0 13.477-0.906 18.479-4.489v-16.81z" stroke="#bca96f" stroke-linecap="round" stroke-width="3.656" fill="none"/><path d="m200.7 38.708 17.356-0.789v8.924c-1.487 0.202-2.229 0.945-2.229 2.5 0 0.474 0.662 5.947 0.729 6.557l3.303-8.688 3.276 8.688c0.136-0.677 0.797-6.083 0.797-6.354 0-1.351-0.676-2.365-1.689-2.703v-8.924l19.586-1.316v8.923c-1.013 0.338-1.892 1.757-2.364 4.055l-7.7 40.078h-22.151l-6.821-37.971c-0.405-2.366-1.283-3.785-2.093-4.056v-8.924zm16.479 22.709 2.363 17.79 2.836-18.053-5.199 0.263" fill="#b39d6e"/><path stroke-linejoin="round" d="m200.7 38.708 17.356-0.789v8.924c-1.487 0.202-2.229 0.945-2.229 2.5 0 0.474 0.662 5.947 0.729 6.557l3.303-8.688 3.276 8.688c0.136-0.677 0.797-6.083 0.797-6.354 0-1.351-0.676-2.365-1.689-2.703v-8.924l19.586-1.316v8.923c-1.013 0.338-1.892 1.757-2.364 4.055l-7.7 40.078h-22.151l-6.821-37.971c-0.405-2.366-1.283-3.785-2.093-4.056v-8.924zm16.479 22.709 2.363 17.79 2.836-18.053-5.199 0.263z" stroke="#bca96f" stroke-linecap="round" stroke-width="3.656" fill="none"/><path d="m281.22 62.169-11.043 0.79v12.453c0 2.769-0.543 3.848-3.12 3.984v-32.185c0-2.497 1.196-3.516 3.503-4.326v-8.915l-22.011 2.105v8.915c2.306 0.81 3.435 1.83 3.435 4.328v30.078c-2.579-0.136-3.122-1.215-3.122-3.984v-10.874l-10.95 0.527v24.594h43.308v-27.49" fill="#b39d6e"/><path stroke-linejoin="round" d="m281.22 62.169-11.043 0.79v12.453c0 2.769-0.543 3.848-3.12 3.984v-32.185c0-2.497 1.196-3.516 3.503-4.326v-8.915l-22.011 2.105v8.915c2.306 0.81 3.435 1.83 3.435 4.328v30.078c-2.579-0.136-3.122-1.215-3.122-3.984v-10.874l-10.95 0.527v24.594h43.308v-27.49z" stroke="#bca96f" stroke-linecap="round" stroke-width="3.656" fill="none"/><path d="m282.26 56.359 15.173-1.054v-5.93c0-3.649 1.582-6.499 5.009-6.858 1.941-0.203 5.6 0.062 5.6 5.71 0 4.897-4.601 8.859-11.659 11.473-10.348 3.833-13.892 10.284-13.892 20.053 0 12.202 7.383 18.819 19.901 18.819 7.121 0 15.702-1.295 21.236-5.002v-21.176l-14.978 2.368v8.09c0 3.946-2.737 4.933-4.779 4.933-2.11 0-4.258-1.596-4.514-5.357-0.342-5.002 1.303-8.314 10.319-11.91 12.909-5.152 15.93-13.962 15.93-21.879 0-13.619-5.751-21.484-21.708-19.894-8.048 0.801-16.996 2.999-21.638 5.666v21.948" fill="#b39d6e"/><g clip-path="url(#b)"><path stroke-linejoin="round" d="m282.26 56.359 15.173-1.054v-5.93c0-3.649 1.582-6.499 5.009-6.858 1.941-0.203 5.6 0.062 5.6 5.71 0 4.897-4.601 8.859-11.659 11.473-10.348 3.833-13.892 10.284-13.892 20.053 0 12.202 7.383 18.819 19.901 18.819 7.121 0 15.702-1.295 21.236-5.002v-21.176l-14.978 2.368v8.09c0 3.946-2.737 4.933-4.779 4.933-2.11 0-4.258-1.596-4.514-5.357-0.342-5.002 1.303-8.314 10.319-11.91 12.909-5.152 15.93-13.962 15.93-21.879 0-13.619-5.751-21.484-21.708-19.894-8.048 0.801-16.996 2.999-21.638 5.666v21.948z" stroke="#bca96f" stroke-linecap="round" stroke-width="3.656" fill="none"/></g><path d="m19.786 70.35v18.236s1.986 0.067 3.258 0.067c3.013 0 5.014-3.189 4.554-8.891-0.351-4.346-1.814-8.669-4.889-9.215-0.527-0.095-2.387-0.265-2.923-0.197zm-17.958-45.332s5.355 1.435 10.21 2.462c4.856 1.026 11.604 2.291 13.747 2.656 6.15 1.047 18.996 5.23 18.963 23.64-0.009 5.443-3.696 13.927-9.576 15.076 5.058 1.013 8.49 5.739 8.49 14.361 0 12.021-7.132 15.66-17.538 15.66h-24.296v-8.799c1.555-0.811 2.352-1.454 2.352-4.562v-44.861c0-2.442-0.797-3.795-2.352-4.606v-11.027zm17.958 17.056v18.812c0.335 0 1.921 0.027 2.255 0 5.754-0.46 5.831-3.8 5.831-7.528 0-5.202 0.294-9.711-5.161-10.825-0.525-0.106-2.389-0.526-2.925-0.459" fill="#680a0a"/><path d="m45.865 41.857c1.555 0.812 1.892 2.165 1.892 4.586v30.368c0 2.443-0.337 3.794-1.892 4.605v8.78h37.003v-19.539h-13.897v4.321c0 3.529-0.868 4.615-4.34 4.615h-1.335v-10.01l17.771-6.16-17.771-7.477v-11.404c0.467-0.067 1.197-0.067 1.599-0.067 3.338 0 4.144 3.457 4.144 7.559 0 0.538 0 2.985-0.068 3.659l13.897 1.051v-20.141l-37.003-3.686v8.94" fill="#680a0a"/><g fill="#680a0a" clip-path="url(#a)"><path d="m82.359 36.603 17.357 1.316v8.924c-1.486 0.202-2.229 0.945-2.229 2.5 0 0.474 0.662 5.684 0.729 6.293l3.201-8.559 3.378 8.823c0.134-0.677 0.796-5.821 0.796-6.091 0-1.352-0.675-2.365-1.689-2.703v-8.924l19.587 0.526v8.924c-1.014 0.338-1.892 1.757-2.364 4.056l-7.7 38.235h-22.151l-6.821-40.342c-0.42-2.365-1.298-3.784-2.109-4.055v-8.923zm16.479 24.814 2.363 18.055 2.837-17.792-5.2-0.263"/><path d="m255.07 10.232c-18.383-1.716-42.707 0.36-61.555 9.396-2.815 1.35-7.455 4.298-10.147 5.923 6.313 0.523 13.768 0.474 18.396 0.75 23.084 1.378 53.154-0.728 64.771-4.158 10.563-3.116 13.345-9.597-11.465-11.911zm-113.03 56.929h-1.562v12.179h0.815c4.21 0 5.5-1.871 5.5-5.856 0-4.054-1.154-6.323-4.753-6.323zm58.675-32.366c-10.018-0.372-19.247-1.032-27.19-1.787-4.03 3.835-7.45 8.498-10.954 14.378-5.818 9.762-6.509 13.338-6.509 13.338 5.109 1.556 6.617 10.123 6.617 13.598 0 10.465-5.543 15.347-17.584 15.347h-21.98v-8.776c1.555-0.81 1.825-2.16 1.825-4.594v-24.1c0-2.427-0.27-3.775-1.825-4.585v-8.906l19.265 0.264v8.905c-1.767 0.675-1.902 2.023-1.902 4.585v7.385h0.88s5.217-11.072 8.893-17.19c1.236-2.055 3.677-5.96 8.09-10.95-11.901-1.665-19.467-3.252-29.759-6.065-41.526-11.352-70.7-11.468-77.393 2.232 0 0-3.359-4.638 2.254-8.692 0 0-8.921 3.356-10.679 15.3 0 0-7.909-9.375 1.149-16.644 0 0-5.049 3.047-7.399 6.181 0 0-0.871-4.004 6.468-9.168 0 0-6.381 0.811-10.638 10.473-6.298-16.704 40.182-31.059 90.89-11.384 11.01 3.277 29.722 8.268 44.848 9.377 8.172-6.334 25.421-17.625 45.433-20.139 35.097-4.409 71.214 2.559 72.463 12.48 0.749 5.939-12.539 21.843-85.275 19.137"/></g><g fill="#680a0a"><path d="m201.19 69.367h-15.074v5.692c0 3.308-0.676 4.928-2.977 4.928-2.368 0-2.976-1.62-2.976-4.928v-20.862c0-3.307 0.608-4.927 2.976-4.927s2.977 1.62 2.977 4.927v5.49h15.074v-15.946c-4.597-3.639-10.749-5.256-18.794-5.256-13.605 0-18.463 5.122-18.463 17.874v16.338c0 12.495 5.647 17.969 18.778 17.969 8.411 0 13.477-0.906 18.479-4.489v-16.81"/><path d="m200.7 38.708 17.356-0.789v8.924c-1.487 0.202-2.229 0.945-2.229 2.5 0 0.474 0.662 5.947 0.729 6.557l3.303-8.688 3.276 8.688c0.136-0.677 0.797-6.083 0.797-6.354 0-1.351-0.676-2.365-1.689-2.703v-8.924l19.586-1.316v8.923c-1.013 0.338-1.892 1.757-2.364 4.055l-7.7 40.078h-22.151l-6.821-37.971c-0.405-2.366-1.283-3.785-2.093-4.056v-8.924zm16.479 22.709 2.363 17.79 2.836-18.053-5.199 0.263"/><path d="m281.22 62.169-11.043 0.79v12.453c0 2.769-0.543 3.848-3.12 3.984v-32.185c0-2.497 1.196-3.516 3.503-4.326v-8.915l-22.011 2.105v8.915c2.306 0.81 3.435 1.83 3.435 4.328v30.078c-2.579-0.136-3.122-1.215-3.122-3.984v-10.874l-10.95 0.527v24.594h43.308v-27.49"/><path d="m282.26 56.359 15.173-1.054v-5.93c0-3.649 1.582-6.499 5.009-6.858 1.941-0.203 5.6 0.062 5.6 5.71 0 4.897-4.601 8.859-11.659 11.473-10.348 3.833-13.892 10.284-13.892 20.053 0 12.202 7.383 18.819 19.901 18.819 7.121 0 15.702-1.295 21.236-5.002v-21.176l-14.978 2.368v8.09c0 3.946-2.737 4.933-4.779 4.933-2.11 0-4.258-1.596-4.514-5.357-0.342-5.002 1.303-8.314 10.319-11.91 12.909-5.152 15.93-13.962 15.93-21.879 0-13.619-5.751-21.484-21.708-19.894-8.048 0.801-16.996 2.999-21.638 5.666v21.948"/></g><path d="m222.27 188.57c0.209-0.789 0.32-1.618 0.32-2.472 0-5.322-4.315-9.637-9.638-9.637-3.564 0-6.678 1.936-8.344 4.814-5.218-3.358-9.012-10.665-12.711-34.913-0.939 0.912-1.427 5.423-1.427 5.951 0.873 21.773-5.768 22.807-7.445 28.121-2.499 7.917 0.607 19.343 10.905 26.139-4.139-4.784-1.868-11.142 1.955-9.098 2.836 1.516 3.714 8.533 14.823 12.678 6.374 2.378 18.8 5.084 22.978 9.731 6.858 7.629 6.527 13.712 6.527 13.712-9.467-14.718-25.149-15.47-30.653-16.471-11.626-2.112-20.219-8.62-26.615-16.876-0.44 6.767 7.565 15.035 9.903 17.296-2.687-2.454-13.645-11.668-27.11-12.044-13.465 0.376-24.419 9.59-27.105 12.044 2.338-2.261 10.343-10.529 9.903-17.296-6.396 8.256-14.989 14.764-26.614 16.876-5.504 1.001-21.187 1.753-30.653 16.471 0 0-0.332-6.083 6.527-13.712 4.178-4.647 16.603-7.353 22.977-9.731 11.109-4.145 11.987-11.162 14.823-12.678 3.824-2.044 6.094 4.314 1.955 9.098 10.298-6.796 13.403-18.222 10.905-26.139-1.678-5.314-8.318-6.348-7.445-28.121 0-0.528-0.487-5.039-1.426-5.951-3.703 24.269-7.5 31.568-12.725 34.922-1.666-2.883-4.781-4.823-8.35-4.823-5.322 0-9.637 4.315-9.637 9.637 0 0.854 0.111 1.683 0.32 2.472l-2.616 1.252c-0.745-2.215-1.144-6.191 1.526-12.219-11.766 6.874-10.998 20.644-7.313 24.951-10.59 1.737-16.16-7.04-17.167-13.709-1.431-9.477 1.904-17.172 7.127-20.79 4.001-2.772 7.946-8.646 10.052-15.231 0 0-4.708 3.471-10.227 4.087 0.609-4.279 10.181-8.116 13.407-28.627-2.476 2.545-6.24 13.568-15.934 17.176-5.507 2.049-15.859 8.404-14.641 16.925 3.044-4.896 8.305-4.279 8.305-4.279-8.364 6.647-11.823 16.205-11.579 23.037-3.682 4.28-5.9 9.735-5.662 16.538 0.307 8.722-3.936 18.199-7.548 18.662 4.261 3.585 12.064-1.427 9.142 2.004-2.922 3.432-28.835 21.002-6.634 58.248 3.827-20.136 19.054-21.629 19.054-21.629s-0.975 2.93-0.163 6.362c15.754-17.516 37.285-5.745 48.459-17.65-1.726 2.128-2.299 4.012-1.461 7.325 14.408-11.99 26.499-4.973 40.418-4.973 13.92 0 26.015-7.017 40.423 4.973 0.838-3.313 0.265-5.197-1.461-7.325 11.175 11.905 32.706 0.134 48.46 17.65 0.812-3.432-0.162-6.362-0.162-6.362s15.227 1.493 19.054 21.629c22.202-37.246-3.712-54.816-6.635-58.248-2.922-3.431 4.881 1.581 9.143-2.004-3.612-0.463-7.855-9.94-7.549-18.662 0.239-6.803-1.98-12.258-5.661-16.538 0.244-6.832-3.215-16.39-11.58-23.037 0 0 5.261-0.617 8.305 4.279 1.218-8.521-9.134-14.876-14.64-16.925-9.696-3.608-13.459-14.631-15.935-17.176 3.226 20.511 12.798 24.348 13.407 28.627-5.519-0.616-10.227-4.087-10.227-4.087 2.105 6.585 6.052 12.459 10.053 15.231 5.222 3.618 8.557 11.313 7.125 20.79-1.006 6.669-6.577 15.446-17.167 13.709 3.686-4.307 4.455-18.077-7.312-24.951 2.674 6.035 2.27 10.014 1.523 12.227l-2.632-1.26" fill="#b39d6e"/><path d="m165.75 141.45c6.671 0 11.138 3.812 15.903 5.242 4.764 1.429 5.716-1.906 5.716-1.906s3.804-8.678 0.361-10.408c-16.047-8.062-12.539-11.262-17.744-13.846-1.772-0.878-4.238-0.351-4.238-0.351s-2.456-0.527-4.228 0.351c-5.204 2.584-1.697 5.784-17.744 13.846-3.443 1.73 0.36 10.408 0.36 10.408s0.954 3.335 5.718 1.906c4.765-1.43 9.226-5.242 15.896-5.242" fill="#680a0a"/><path d="m165.75 141.45c6.671 0 11.138 3.812 15.903 5.242 4.764 1.429 5.716-1.906 5.716-1.906s3.804-8.678 0.361-10.408c-16.047-8.062-12.539-11.262-17.744-13.846-1.772-0.878-4.238-0.351-4.238-0.351s-2.456-0.527-4.228 0.351c-5.204 2.584-1.697 5.784-17.744 13.846-3.443 1.73 0.36 10.408 0.36 10.408s0.954 3.335 5.718 1.906c4.765-1.43 9.226-5.242 15.896-5.242z" stroke="#bca96f" stroke-miterlimit="3.864" stroke-width="3.429" fill="none"/><g><path d="m236.66 147.64c1.41 1.992 2.742 3.484 3.756 4.743 1.006 1.247 2.049 2.647 2.28 4.272l0.329 2.307-2.316-0.259c-1.944-0.217-3.774-0.749-5.359-1.366l-1.125-0.438 0.561 1.068c2.006 3.818 4.536 6.912 6.977 8.603 5.912 4.096 9.392 12.548 7.883 22.543-1.075 7.113-7.19 17.198-19.245 15.22l-3.163-0.519 2.084-2.435c2.303-2.693 3.413-10.887-1.343-17.341l-0.99-1.341 0.178 1.657c0.274 2.567-0.055 4.574-0.553 6.05l-0.651 1.932-5.818-2.784 0.381-1.445c0.17-0.641 0.261-1.313 0.261-2.011 0-4.326-3.507-7.832-7.833-7.832-2.894 0-5.426 1.57-6.783 3.914l-0.948 1.637-1.591-1.024c-4.476-2.881-7.746-8.164-10.645-20.654l-0.634-2.734-0.255 2.795c-0.465 5.102-1.515 8.539-2.767 11.131-0.476 0.986-0.973 1.832-1.467 2.593-0.47 0.727-0.937 1.372-1.374 1.984-0.853 1.196-1.419 2.046-1.741 3.069-1.714 5.43-0.51 12.91 4.476 18.982l0.635 0.774 0.159-0.988c0.042-0.258 0.096-0.511 0.164-0.757 0.718-2.631 3.27-4.861 6.554-3.105 1.134 0.606 1.936 1.676 2.58 2.595 0.636 0.91 1.336 2.028 2.291 3.225 1.783 2.236 4.52 4.813 9.734 6.759 3.178 1.185 7.865 2.452 12.278 4.003 4.377 1.537 8.969 3.498 11.409 6.213 7.24 8.051 7.009 14.634 6.988 15.016l-0.303 5.569-3.017-4.69c-4.475-6.958-10.407-10.614-15.923-12.664-2.789-1.037-5.457-1.658-7.759-2.083-2.391-0.441-4.401-0.675-5.776-0.925-7.814-1.419-14.305-4.741-19.698-9.194l-2.848-2.352 2.198 2.968c1.899 2.565 3.979 4.724 5.126 5.84 0 0 1.995 2.254 2.415 4.294 0.183 0.902-0.657 0.701-0.657 0.701-2.365-0.676-4.188-2.322-4.188-2.322-2.713-2.468-13.187-11.152-25.857-11.529-12.676 0.387-23.146 9.083-25.842 11.538 0 0-2.88 2.18-4.386 2.567-1.107 0.313-0.706-0.788-0.706-0.788 1.011-2.504 2.658-4.447 2.658-4.447 1.144-1.113 3.233-3.279 5.139-5.853l2.199-2.969-2.848 2.352c-5.393 4.453-11.883 7.775-19.697 9.194-1.375 0.25-3.386 0.484-5.776 0.925-2.302 0.425-4.971 1.046-7.759 2.083-5.516 2.05-11.448 5.706-15.923 12.664l-3.017 4.69-0.304-5.569c-0.02-0.382-0.251-6.965 6.988-15.016 2.44-2.715 7.032-4.676 11.409-6.213 4.413-1.551 9.101-2.818 12.279-4.003 5.214-1.946 7.951-4.523 9.734-6.759 0.954-1.197 1.654-2.315 2.291-3.225 0.643-0.919 1.445-1.989 2.578-2.595 3.285-1.756 5.837 0.474 6.556 3.105 0.067 0.246 0.121 0.499 0.163 0.757l0.159 0.988 0.635-0.774c4.985-6.072 6.19-13.552 4.476-18.982-0.323-1.023-0.889-1.873-1.742-3.069-0.436-0.612-0.902-1.257-1.374-1.984-0.493-0.761-0.99-1.607-1.466-2.593-1.252-2.592-2.302-6.03-2.767-11.134l-0.254-2.795-0.635 2.734c-2.902 12.507-6.177 17.788-10.661 20.666l-1.591 1.023-0.947-1.638c-1.356-2.347-3.889-3.921-6.787-3.921-4.326 0-7.832 3.506-7.832 7.832 0 0.697 0.091 1.371 0.26 2.011l0.382 1.445-5.804 2.776-0.65-1.933c-0.496-1.476-0.822-3.48-0.549-6.041l0.177-1.657-0.989 1.341c-4.757 6.455-3.647 14.648-1.343 17.341l2.084 2.435-3.163 0.519c-12.055 1.978-18.17-8.107-19.245-15.22-1.509-9.995 1.971-18.447 7.883-22.543 2.441-1.691 4.971-4.785 6.976-8.603l0.561-1.068-1.124 0.438c-1.585 0.617-3.415 1.149-5.359 1.366l-2.315 0.259 0.328-2.307c0.231-1.625 1.274-3.025 2.28-4.272 1.014-1.259 2.346-2.751 3.756-4.743 1.214-1.716 2.502-3.829 3.696-6.529l1.192-2.698-1.944 2.218c-2.305 2.629-5.256 5.091-9.091 6.519-3.982 1.481-9.65 4.907-12.211 9.27l-0.667 1.135 1.224-0.487c0.415-0.166 0.82-0.298 1.208-0.403 2-0.54 3.568-0.368 3.691-0.354l4.313 0.505-3.4 2.701c-7.916 6.291-11.122 15.302-10.898 21.559l0.025 0.707-0.345 0.401c-3.516 4.087-5.564 9.104-5.342 15.432 0.22 6.266-1.844 13.557-4.865 17.546l-0.588 0.778 0.973-0.054c0.67-0.038 1.37-0.137 2.077-0.262 0.54-0.096 1.023-0.193 1.42-0.257 0.227-0.037 0.456-0.068 0.67-0.084 0.228-0.018 0.522-0.025 0.822 0.029 1.035 0.183 2.053 1.185 1.635 2.616-0.181 0.616-0.634 1.181-0.98 1.587-0.253 0.298-0.592 0.629-0.937 0.955l-1.241 1.156c-0.917 0.856-2.048 1.936-3.259 3.252-2.403 2.614-5.087 6.128-7.017 10.623-3.462 8.066-4.632 19.605 3.297 35.275l0.483 0.952 0.347-1.009c5.537-16.098 18.917-17.524 19.196-17.551l2.762-0.271-0.218 0.659c-0.011 0.034-0.441 1.336-0.723 2.41l-0.35 1.333 1.071-0.868c7.46-6.042 15.763-7.203 23.268-7.833 4.29-0.36 8.442-0.54 12.204-1.368 3.614-0.795 6.678-2.162 9.143-4.789 0 0 1.206-1.142 2.732-1.41 0.821-0.121 1.162 0.292 1.04 0.974-0.194 1.508-1.054 2.809-1.054 2.809-0.429 0.529-0.766 1.02-1.005 1.524l-0.676 1.429 1.329-0.856c6.241-4.022 12.156-4.921 17.952-4.696 6.541 0.254 13.02 2.008 19.955 2.008 6.936 0 13.416-1.754 19.958-2.008 5.797-0.226 11.713 0.674 17.954 4.696l1.33 0.856-0.677-1.428c-0.239-0.505-0.575-0.996-1.005-1.525 0 0-1.131-1.593-1.472-2.883-0.171-0.973 0.341-1.386 1.262-1.152 1.487 0.398 2.928 1.662 2.928 1.662 2.466 2.627 5.53 3.994 9.143 4.789 3.763 0.828 7.914 1.008 12.205 1.368 7.505 0.63 15.809 1.791 23.269 7.833l1.07 0.868-0.349-1.333c-0.284-1.074-0.712-2.376-0.723-2.41l-0.219-0.659 2.762 0.271c0.279 0.027 13.659 1.453 19.196 17.551l0.348 1.009 0.482-0.952c7.929-15.67 6.76-27.209 3.297-35.275-1.93-4.496-4.613-8.009-7.016-10.623-1.21-1.316-2.342-2.396-3.259-3.252l-1.241-1.156c-0.344-0.325-0.685-0.658-0.938-0.955-0.346-0.405-0.799-0.971-0.978-1.587-0.419-1.431 0.599-2.433 1.633-2.616 0.3-0.054 0.594-0.047 0.822-0.029 0.214 0.016 0.444 0.047 0.671 0.084 0.397 0.064 0.879 0.161 1.419 0.257 0.707 0.125 1.408 0.223 2.078 0.261l0.972 0.054-0.588-0.777c-3.02-3.989-5.085-11.28-4.865-17.546 0.222-6.309-1.812-11.31-5.186-15.251l-0.486-1.023 0.01-0.266c0.224-6.257-2.981-15.268-10.897-21.559l-3.399-2.7 4.312-0.506c0.096-0.011 1.456-0.162 3.253 0.245 0.515 0.118 1.071 0.282 1.646 0.51l1.222 0.486-0.666-1.133c-2.562-4.363-8.23-7.788-12.211-9.269-3.835-1.428-6.786-3.891-9.091-6.52l-1.944-2.217 1.192 2.697c1.193 2.701 2.481 4.814 3.696 6.53" fill="#680a0a"/><path d="m60.689 233.24c-1.506 1.854-3.178 5.257-3.881 10.18-0.825 5.776 0.163 11.013 1.318 12.746 4.956-19.243 16.76-27.262 16.76-27.262-7.098 4.153-13.257 9.05-16.325 19.086-0.528-8.791 2.128-14.75 2.128-14.75" fill="#ffffff"/><path d="m270.84 233.24c1.506 1.854 3.179 5.257 3.882 10.18 0.824 5.776-0.164 11.013-1.319 12.746-4.955-19.243-16.759-27.262-16.759-27.262 7.097 4.153 13.257 9.05 16.325 19.086 0.527-8.791-2.129-14.75-2.129-14.75" fill="#ffffff"/><path d="m165.75 141.54c6.743 0 11.259 3.854 16.075 5.299 4.818 1.445 5.781-1.927 5.781-1.927s3.845-8.773 0.364-10.522c-16.223-8.15-12.677-11.386-17.939-13.996-1.79-0.89-4.283-0.357-4.283-0.357s-2.483-0.533-4.274 0.357c-5.262 2.61-1.716 5.846-17.939 13.996-3.48 1.749 0.365 10.522 0.365 10.522s0.963 3.372 5.78 1.927c4.816-1.445 9.327-5.299 16.07-5.299" fill="#680a0a"/></g></g></g></svg>
